#!OML:ASF X:\für Bonn\!DataBase\2005_08_11_Bastian_Final\c3d\Bastian.ASF
:FULLY-SPECIFIED
:DEGREES
124
root 1.62054 17.109 18.9728 -556.072 -28.0471 -177.248
lowerback 40.4705 -1.44752 7.6506
upperback 19.0012 -5.73273 2.86091
thorax 1.86431 -5.17381 0.854766
lowerneck -2.02414 -11.9794 -11.2924
upperneck -19.0306 -15.798 16.0259
head -3.05143 -8.78827 6.83983
rclavicle 2.40529e-014 -3.99557e-014
rhumerus -15.8199 15.6761 -79.9411
rradius 39.4755
rwrist -7.82971
rhand -16.354 5.28892
rfingers 7.12502
rthumb 9.85863 -24.4603
lclavicle 2.40529e-014 -3.99557e-014
lhumerus -22.25 -0.849602 82.5711
lradius 36.2334
lwrist 37.131
lhand -11.1569 -11.5523
lfingers 7.12502
lthumb 14.8694 17.8941
rfemur -10.7384 -7.24057 21.1798
rtibia 35.2329
rfoot -6.19038 -12.4962
rtoes -8.03741
lfemur -10.6012 3.69331 -14.0755
ltibia 52.3661
lfoot -5.64408 -12.5022
ltoes -23.8464
125
root 1.63067 17.1051 18.9543 -555.985 -28.0518 -177.135
lowerback 40.9101 -1.50542 7.92747
upperback 19.0558 -5.75274 2.88703
thorax 1.80745 -5.19519 0.775261
lowerneck -2.09862 -11.9772 -11.152
upperneck -19.1878 -15.7919 16.0616
head -3.09511 -8.80753 6.8365
rclavicle 1.78906e-015 -1.0138e-014
rhumerus -15.2427 16.0973 -79.5515
rradius 39.6407
rwrist -8.22856
rhand -16.3254 5.27664
rfingers 7.12502
rthumb 9.88623 -24.4712
lclavicle 1.78906e-015 -1.0138e-014
lhumerus -22.0424 -1.0886 82.4177
lradius 36.1621
lwrist 36.8007
lhand -11.109 -11.5897
lfingers 7.12502
lthumb 14.9155 17.8533
rfemur -10.9756 -7.48906 21.3339
rtibia 35.5003
rfoot -6.46491 -12.316
rtoes -8.08455
lfemur -11.2204 3.94448 -14.5029
ltibia 51.0832
lfoot -5.54611 -12.8685
ltoes -23.9162
126
root 1.63842 17.0998 18.9347 -555.893 -28.0356 -177.066
lowerback 41.3493 -1.53865 8.1785
upperback 19.1139 -5.75109 2.9161
thorax 1.75807 -5.20862 0.70461
lowerneck -2.18853 -11.9712 -11.0208
upperneck -19.3297 -15.7793 16.0933
head -3.13225 -8.82159 6.83139
rclavicle 4.03533e-014 -6.02318e-014
rhumerus -14.6829 16.4356 -79.1257
rradius 39.7944
rwrist -8.60009
rhand -16.2317 5.28346
rfingers 7.12502
rthumb 9.97665 -24.4601
lclavicle 4.03533e-014 -6.02318e-014
lhumerus -21.8359 -1.4976 82.2995
lradius 36.0968
lwrist 36.5649
lhand -11.0945 -11.6548
lfingers 7.12502
lthumb 14.9295 17.7872
rfemur -11.1956 -7.67515 21.442
rtibia 35.7851
rfoot -6.79619 -12.1392
rtoes -7.9129
lfemur -11.7562 4.19094 -14.9727
ltibia 49.7233
lfoot -5.4113 -13.056
ltoes -23.9582
127
root 1.64497 17.0935 18.9151 -555.798 -28.0097 -176.991
lowerback 41.7491 -1.58035 8.43533
upperback 19.1947 -5.76855 2.93366
thorax 1.74658 -5.23125 0.620264
lowerneck -2.27631 -11.9676 -10.877
upperneck -19.49 -15.7733 16.1177
head -3.1764 -8.8413 6.82367
rclavicle 1.49089e-014 -2.36554e-014
rhumerus -14.0463 16.7214 -78.7236
rradius 39.8775
rwrist -8.87666
rhand -16.1865 5.32231
rfingers 7.12502
rthumb 10.0202 -24.4192
lclavicle 1.49089e-014 -2.36554e-014
lhumerus -21.596 -1.96108 82.1665
lradius 35.9991
lwrist 36.4154
lhand -11.0125 -11.728
lfingers 7.12502
lthumb 15.0085 17.7081
rfemur -11.4447 -7.90941 21.5549
rtibia 36.0947
rfoot -7.1094 -11.9071
rtoes -8.07803
lfemur -12.2439 4.44544 -15.4309
ltibia 48.2897
lfoot -5.31457 -13.0828
ltoes -24.3205
128
root 1.65006 17.0838 18.895 -555.722 -27.9632 -176.912
lowerback 42.172 -1.62923 8.70991
upperback 19.2593 -5.77906 2.93885
thorax 1.71151 -5.24742 0.515506
lowerneck -2.3462 -11.9627 -10.7803
upperneck -19.6161 -15.7567 16.1952
head -3.2047 -8.85352 6.83734
rclavicle -3.02153e-014 2.52457e-014
rhumerus -13.4759 16.9491 -78.3447
rradius 39.9878
rwrist -9.03603
rhand -16.1483 5.29397
rfingers 7.12502
rthumb 10.057 -24.4457
lclavicle -3.02153e-014 2.52457e-014
lhumerus -21.4044 -2.52899 82.0234
lradius 35.9104
lwrist 36.2972
lhand -10.9481 -11.7861
lfingers 7.12502
lthumb 15.0704 17.6453
rfemur -11.6872 -8.18317 21.6678
rtibia 36.4381
rfoot -7.42994 -11.6387
rtoes -8.25151
lfemur -12.6463 4.68044 -15.8788
ltibia 46.7747
lfoot -5.23343 -12.9613
ltoes -25.2438
129
root 1.65317 17.0735 18.8754 -555.649 -27.9035 -176.835
lowerback 42.5726 -1.67564 8.98355
upperback 19.3468 -5.79871 2.94303
thorax 1.71105 -5.27033 0.409382
lowerneck -2.50017 -11.9581 -10.6325
upperneck -19.6904 -15.7443 16.2078
head -3.21475 -8.86443 6.81474
rclavicle 4.13472e-014 -7.95139e-014
rhumerus -12.8253 17.1362 -77.9649
rradius 40.032
rwrist -9.20486
rhand -16.0926 5.2902
rfingers 7.12502
rthumb 10.1108 -24.4469
lclavicle 4.13472e-014 -7.95139e-014
lhumerus -21.202 -3.0701 81.8915
lradius 35.8374
lwrist 36.1423
lhand -10.8622 -11.8519
lfingers 7.12502
lthumb 15.1533 17.5733
rfemur -11.9365 -8.42702 21.7752
rtibia 36.8003
rfoot -7.76272 -11.3807
rtoes -8.37804
lfemur -12.9842 4.91813 -16.3154
ltibia 45.194
lfoot -5.02125 -12.7533
ltoes -25.9593
130
root 1.65512 17.064 18.8569 -555.576 -27.8063 -176.786
lowerback 43.0017 -1.70557 9.21459
upperback 19.4201 -5.8085 2.95391
thorax 1.69023 -5.29337 0.331841
lowerneck -2.60453 -11.9457 -10.5899
upperneck -19.7976 -15.7157 16.3054
head -3.22691 -8.86833 6.8387
rclavicle 1.19271e-015 -2.48481e-014
rhumerus -12.2172 17.3041 -77.565
rradius 40.1209
rwrist -9.32858
rhand -16.0194 5.24524
rfingers 7.12502
rthumb 10.1815 -24.4884
lclavicle 1.19271e-015 -2.48481e-014
lhumerus -20.9959 -3.54727 81.7691
lradius 35.6807
lwrist 35.9253
lhand -10.757 -11.9477
lfingers 7.12502
lthumb 15.2545 17.4698
rfemur -12.1934 -8.65665 21.8589
rtibia 37.1974
rfoot -8.09945 -11.1007
rtoes -8.44606
lfemur -13.2363 5.16416 -16.7597
ltibia 43.5476
lfoot -4.7313 -12.4573
ltoes -25.981
131
root 1.6556 17.0524 18.8383 -555.527 -27.6896 -176.712
lowerback 43.3912 -1.73448 9.48504
upperback 19.5337 -5.82207 2.94742
thorax 1.72685 -5.31625 0.210715
lowerneck -2.75269 -11.9295 -10.4296
upperneck -19.9138 -15.6894 16.3324
head -3.2518 -8.87739 6.82291
rclavicle -2.54444e-014 6.32135e-014
rhumerus -11.5527 17.3645 -77.2014
rradius 40.1691
rwrist -9.34088
rhand -15.9627 5.16564
rfingers 7.12502
rthumb 10.2361 -24.5653
lclavicle -2.54444e-014 6.32135e-014
lhumerus -20.7248 -3.96602 81.6106
lradius 35.4908
lwrist 35.6293
lhand -10.6314 -12.0239
lfingers 7.12502
lthumb 15.3755 17.3843
rfemur -12.4419 -8.94068 21.9586
rtibia 37.6076
rfoot -8.45752 -10.768
rtoes -8.70802
lfemur -13.4273 5.35389 -17.1663
ltibia 41.8872
lfoot -4.52484 -12.0726
ltoes -25.4961
132
root 1.65405 17.0365 18.8199 -555.504 -27.54 -176.667
lowerback 43.834 -1.75115 9.73331
upperback 19.6313 -5.82212 2.94145
thorax 1.73463 -5.33635 0.102124
lowerneck -2.88411 -11.9249 -10.3443
upperneck -19.9915 -15.6716 16.4052
head -3.25555 -8.88605 6.82884
rclavicle 4.77083e-015 7.07673e-014
rhumerus -10.9322 17.4236 -76.8315
rradius 40.2139
rwrist -9.38935
rhand -15.9716 5.08561
rfingers 7.12502
rthumb 10.2276 -24.6458
lclavicle 4.77083e-015 7.07673e-014
lhumerus -20.4644 -4.27494 81.4792
lradius 35.2345
lwrist 35.2375
lhand -10.481 -12.1287
lfingers 7.12502
lthumb 15.5204 17.2684
rfemur -12.667 -9.20097 22.0257
rtibia 38.0431
rfoot -8.80143 -10.4176
rtoes -9.10466
lfemur -13.5202 5.38282 -17.5867
ltibia 40.2451
lfoot -4.38097 -11.5315
ltoes -24.4667
133
root 1.65262 17.0221 18.8025 -555.504 -27.3834 -176.615
lowerback 44.2943 -1.7646 9.96972
upperback 19.7257 -5.82033 2.92789
thorax 1.73644 -5.35662 -0.00758272
lowerneck -3.01162 -11.9063 -10.1706
upperneck -20.0656 -15.6389 16.433
head -3.27273 -8.88944 6.81013
rclavicle 1.70955e-014 5.22804e-014
rhumerus -10.321 17.3648 -76.5086
rradius 40.2404
rwrist -9.32591
rhand -15.9138 5.0064
rfingers 7.12502
rthumb 10.2833 -24.7222
lclavicle 1.70955e-014 5.22804e-014
lhumerus -20.1952 -4.58491 81.3293
lradius 34.9516
lwrist 34.7551
lhand -10.3566 -12.2006
lfingers 7.12502
lthumb 15.6403 17.1871
rfemur -12.8619 -9.48704 22.0936
rtibia 38.449
rfoot -9.15241 -10.0614
rtoes -9.26881
lfemur -13.6203 5.31265 -17.9729
ltibia 38.7151
lfoot -4.25117 -10.9455
ltoes -22.9313
